PathFileType	4	(X/Y/Z)	output.trc
DataRate	CameraRate	NumFrames	NumMarkers	Units	OrigDataRate	OrigDataStartFrame	OrigNumFrames
100	100	10	23	m	100	1258	5030
Frame#	Time	C7			T8			EL			EM			US			RS			AA			Fore_Clus_1			Fore_Clus_2			Fore_Clus_3			Fore_Clus_4			Hum_Clus_1			Hum_Clus_2			Hum_Clus_3			Hum_Clus_4			Thor_Clus_1			Thor_Clus_2			Thor_Clus_3			Thor_Clus_4			IJ			PX			GH			Thor_Clus_5		
		X1	Y1	Z1	X2	Y2	Z2	X3	Y3	Z3	X4	Y4	Z4	X5	Y5	Z5	X6	Y6	Z6	X7	Y7	Z7	X8	Y8	Z8	X9	Y9	Z9	X10	Y10	Z10	X11	Y11	Z11	X12	Y12	Z12	X13	Y13	Z13	X14	Y14	Z14	X15	Y15	Z15	X16	Y16	Z16	X17	Y17	Z17	X18	Y18	Z18	X19	Y19	Z19	X20	Y20	Z20	X21	Y21	Z21	X22	Y22	Z22	X23	Y23	Z23
1257	12.570000	-0.012195	1.345987	-0.126979	-0.013191	1.142931	-0.141729	-0.190670	1.007142	0.035767	-0.154860	0.987453	-0.002979	-0.045181	1.027504	0.206663	-0.041223	1.073572	0.191491	-0.150541	1.262225	-0.026031	-0.104496	1.027483	0.194611	-0.068520	1.040983	0.233603	-0.067253	1.067018	0.222987	-0.101869	1.068797	0.177146	-0.194277	1.093707	0.059423	-0.221704	1.098484	0.006016	-0.221897	1.161835	-0.000343	-0.187746	1.166717	0.047319	0.093542	1.266501	0.003872	0.050007	1.219241	0.058696	0.052913	1.263949	0.022280	0.108550	1.222405	0.031613	0.033824	1.284563	-0.041766	0.068536	1.097764	0.032784	-0.128727	1.248990	-0.037943	0.043699	1.238682	0.046557
1258	12.580000	-0.012284	1.345988	-0.126951	-0.013292	1.142931	-0.141699	-0.190828	1.007187	0.035817	-0.155026	0.987483	-0.002930	-0.045298	1.027495	0.206676	-0.041330	1.073563	0.191507	-0.150639	1.262235	-0.026007	-0.104617	1.027501	0.194664	-0.068615	1.040970	0.233629	-0.067333	1.067019	0.223006	-0.101975	1.068798	0.177182	-0.194419	1.093760	0.059498	-0.221842	1.098545	0.006066	-0.222020	1.161892	-0.000293	-0.187843	1.166752	0.047373	0.093433	1.266493	0.003923	0.049905	1.219242	0.058732	0.052822	1.263953	0.022285	0.108441	1.222402	0.031653	0.033728	1.284561	-0.041735	0.068426	1.097761	0.032818	-0.128830	1.249007	-0.037937	0.043569	1.238675	0.046575
1259	12.590000	-0.012382	1.345971	-0.126936	-0.013388	1.142913	-0.141667	-0.190986	1.007232	0.035867	-0.155193	0.987513	-0.002881	-0.045408	1.027485	0.206690	-0.041436	1.073556	0.191527	-0.150742	1.262226	-0.025993	-0.104718	1.027503	0.194687	-0.068702	1.040957	0.233650	-0.067425	1.067013	0.223025	-0.102084	1.068811	0.177223	-0.194543	1.093812	0.059548	-0.222009	1.098604	0.006112	-0.222145	1.161959	-0.000249	-0.187945	1.166796	0.047407	0.093316	1.266492	0.003953	0.049793	1.219250	0.058769	0.052715	1.263967	0.022330	0.108328	1.222384	0.031687	0.033625	1.284552	-0.041713	0.068320	1.097758	0.032858	-0.128936	1.249025	-0.037932	0.043478	1.238670	0.046608
1260	12.600000	-0.012474	1.345961	-0.126925	-0.013472	1.142902	-0.141648	-0.191141	1.007276	0.035919	-0.155358	0.987543	-0.002830	-0.045510	1.027471	0.206698	-0.041536	1.073543	0.191542	-0.150844	1.262216	-0.025995	-0.104824	1.027498	0.194720	-0.068799	1.040937	0.233679	-0.067510	1.066993	0.223050	-0.102187	1.068811	0.177271	-0.194677	1.093853	0.059602	-0.222149	1.098647	0.006169	-0.222271	1.162006	-0.000195	-0.188052	1.166826	0.047449	0.093196	1.266487	0.003988	0.049688	1.219251	0.058795	0.052600	1.263966	0.022342	0.108216	1.222383	0.031717	0.033524	1.284546	-0.041693	0.068216	1.097757	0.032889	-0.129043	1.249043	-0.037924	0.043314	1.238642	0.046603
1261	12.610000	-0.012571	1.345940	-0.126923	-0.013550	1.142880	-0.141629	-0.191292	1.007320	0.035972	-0.155520	0.987573	-0.002780	-0.045606	1.027458	0.206708	-0.041632	1.073532	0.191559	-0.150949	1.262191	-0.026008	-0.104925	1.027504	0.194747	-0.068886	1.040939	0.233699	-0.067594	1.066983	0.223068	-0.102284	1.068805	0.177309	-0.194800	1.093889	0.059645	-0.222281	1.098692	0.006205	-0.222393	1.162050	-0.000152	-0.188165	1.166864	0.047488	0.093069	1.266489	0.004028	0.049569	1.219267	0.058842	0.052499	1.263979	0.022370	0.108094	1.222368	0.031765	0.033420	1.284536	-0.041679	0.068115	1.097755	0.032923	-0.129152	1.249063	-0.037913	0.043244	1.238628	0.046670
1262	12.620000	-0.012667	1.345918	-0.126927	-0.013620	1.142856	-0.141617	-0.191440	1.007362	0.036024	-0.155677	0.987603	-0.002731	-0.045697	1.027443	0.206717	-0.041726	1.073521	0.191576	-0.151055	1.262161	-0.026031	-0.105028	1.027496	0.194783	-0.068965	1.040925	0.233707	-0.067673	1.066982	0.223076	-0.102385	1.068812	0.177336	-0.194935	1.093927	0.059686	-0.222414	1.098726	0.006248	-0.222523	1.162074	-0.000095	-0.188280	1.166891	0.047533	0.092927	1.266481	0.004066	0.049470	1.219267	0.058862	0.052368	1.263976	0.022400	0.107997	1.222370	0.031780	0.033314	1.284526	-0.041669	0.068017	1.097755	0.032955	-0.129262	1.249084	-0.037899	0.042773	1.238550	0.046458
1263	12.630000	-0.012758	1.345902	-0.126931	-0.013682	1.142840	-0.141612	-0.191581	1.007401	0.036076	-0.155827	0.987633	-0.002682	-0.045782	1.027427	0.206725	-0.041814	1.073507	0.191592	-0.151159	1.262133	-0.026064	-0.105110	1.027501	0.194800	-0.069029	1.040924	0.233720	-0.067746	1.066978	0.223095	-0.102471	1.068821	0.177356	-0.195058	1.093976	0.059716	-0.222544	1.098771	0.006298	-0.222641	1.162108	-0.000058	-0.188396	1.166908	0.047577	0.092826	1.266493	0.004097	0.049352	1.219274	0.058892	0.052267	1.263984	0.022416	0.107889	1.222368	0.031799	0.033211	1.284520	-0.041660	0.067919	1.097756	0.032981	-0.129372	1.249106	-0.037880	0.042526	1.238515	0.046380
1264	12.640000	-0.012854	1.345876	-0.126942	-0.013742	1.142813	-0.141605	-0.191716	1.007438	0.036125	-0.155969	0.987662	-0.002636	-0.045864	1.027413	0.206739	-0.041901	1.073496	0.191613	-0.151265	1.262094	-0.026100	-0.105207	1.027481	0.194850	-0.069111	1.040904	0.233745	-0.067826	1.066962	0.223120	-0.102567	1.068824	0.177392	-0.195197	1.093999	0.059759	-0.222668	1.098798	0.006339	-0.222760	1.162133	-0.000019	-0.188508	1.166944	0.047611	0.092730	1.266482	0.004121	0.049255	1.219289	0.058930	0.052142	1.263996	0.022440	0.107795	1.222359	0.031824	0.033105	1.284509	-0.041654	0.067825	1.097758	0.033012	-0.129483	1.249128	-0.037857	0.042438	1.238517	0.046404
1265	12.650000	-0.012940	1.345865	-0.126948	-0.013795	1.142801	-0.141606	-0.191843	1.007472	0.036173	-0.156101	0.987690	-0.002590	-0.045942	1.027396	0.206750	-0.041984	1.073482	0.191633	-0.151367	1.262065	-0.026142	-0.105268	1.027467	0.194874	-0.069179	1.040887	0.233770	-0.067907	1.066936	0.223144	-0.102668	1.068814	0.177437	-0.195311	1.094034	0.059797	-0.222778	1.098838	0.006375	-0.222862	1.162160	0.000014	-0.188673	1.166965	0.047651	0.092635	1.266491	0.004146	0.049166	1.219298	0.058952	0.052039	1.264002	0.022470	0.107702	1.222378	0.031839	0.033004	1.284506	-0.041646	0.067731	1.097762	0.033034	-0.129593	1.249152	-0.037829	0.042356	1.238527	0.046449
1266	12.660000	-0.013028	1.345850	-0.126954	-0.013847	1.142785	-0.141605	-0.191961	1.007501	0.036217	-0.156223	0.987716	-0.002548	-0.046018	1.027380	0.206768	-0.042067	1.073470	0.191659	-0.151469	1.262033	-0.026181	-0.105339	1.027428	0.194907	-0.069278	1.040855	0.233801	-0.067991	1.066906	0.223189	-0.102771	1.068790	0.177482	-0.195431	1.094062	0.059839	-0.222888	1.098861	0.006417	-0.222981	1.162181	0.000048	-0.188779	1.166997	0.047681	0.092538	1.266493	0.004153	0.049069	1.219313	0.058990	0.051929	1.264016	0.022498	0.107610	1.222379	0.031870	0.032903	1.284503	-0.041638	0.067639	1.097767	0.033059	-0.129703	1.249175	-0.037796	0.042223	1.238534	0.046400
